<svg overflow="visible" width="20.0381" height="20.0371" viewBox="0 0 20.0381 20.0371" fill="none" xmlns="http://www.w3.org/2000/svg">
<path id="Union" opacity="0.63" d="M10.0186 0C10.5809 -2.45809e-08 11.0381 0.456209 11.0381 1.01855V9H19.0195C19.5817 9.00026 20.0381 9.45637 20.0381 10.0186C20.0379 10.5807 19.5808 11.0371 19.0186 11.0371H11.0381V19.0186C11.0379 19.5806 10.5815 20.0368 10.0195 20.0371C9.45731 20.0371 9.00117 19.5807 9.00098 19.0186V11.0371H1.01855C0.456556 11.0368 0.000198709 10.5806 0 10.0186C4.91618e-08 9.45621 0.457186 9 1.01953 9H9.00098V1.01855C9.00098 0.456372 9.45643 0.000264084 10.0186 0Z" fill="black"/>
</svg>
